<svg width="256" height="256" viewBox="0 0 256 256" fill="none" xmlns="http://www.w3.org/2000/svg">
<path d="M85.6295 205.932C85.6295 207.051 84.5099 207.851 82.9104 207.851C81.311 207.851 80.0314 207.851 80.0314 205.932C80.0314 204.014 81.311 204.014 82.7505 204.014C84.19 204.014 85.6295 204.813 85.6295 205.932ZM69.635 203.534C69.635 204.653 69.635 205.932 71.8742 206.252C72.447 206.527 73.1055 206.563 73.7052 206.354C74.3049 206.144 74.7968 205.705 75.0731 205.133C75.0731 204.014 75.0731 202.895 72.8339 202.415C70.5947 201.935 69.9549 202.415 69.635 203.534ZM92.3472 202.735C90.9076 202.735 89.948 204.014 90.1079 205.293C90.2679 206.572 91.5474 207.051 93.1469 206.732C94.7463 206.412 95.546 205.293 95.3861 204.174C95.2262 203.054 93.9466 202.575 92.3472 202.735ZM126.415 0.010056C109.547 -0.148636 92.8204 3.10073 77.2394 9.56314C61.6583 16.0256 47.544 25.5678 35.7434 37.6173C23.9428 49.6668 14.6991 63.9751 8.56713 79.6836C2.43513 95.3922 -0.45879 112.177 0.059018 129.031C-0.387464 156.64 7.804 183.7 23.4893 206.429C39.1746 229.159 61.5705 246.425 87.5488 255.814C94.1065 256.933 96.5057 252.776 96.5057 249.419V217.443C96.5057 217.443 60.3582 225.437 52.6808 201.456C52.6808 201.456 46.9228 185.468 38.4458 182.11C38.4458 182.11 26.6098 173.797 39.2455 173.957C43.384 174.515 47.334 176.034 50.7784 178.395C54.2228 180.755 57.0656 183.889 59.0786 187.546C60.7522 190.825 63.0784 193.728 65.9145 196.076C68.7506 198.424 72.0368 200.168 75.5715 201.201C79.1061 202.234 82.8146 202.534 86.4695 202.083C90.1244 201.632 93.6485 200.439 96.8256 198.578C97.4309 191.903 100.311 185.638 104.983 180.831C76.1927 177.474 47.0828 173.317 47.0828 122.316C46.777 116.555 47.703 110.794 49.7991 105.419C51.8951 100.043 55.1131 95.1753 59.2386 91.1402C55.3463 79.4368 55.8005 66.7237 60.5181 55.3276C71.3944 51.8103 96.1858 69.5567 96.1858 69.5567C117.365 63.5859 139.784 63.5859 160.963 69.5567C160.963 69.5567 185.755 51.8103 196.631 55.3276C201.451 66.7013 201.906 79.4518 197.911 91.1402C202.182 95.1198 205.57 99.9507 207.857 105.321C210.143 110.691 211.278 116.481 211.186 122.316C211.186 173.477 180.797 177.474 152.007 180.831C154.9 184.076 157.102 187.875 158.477 191.999C159.852 196.122 160.371 200.482 160.004 204.813V249.099C159.993 250.179 160.244 251.245 160.733 252.207C161.223 253.17 161.938 254 162.817 254.628C163.696 255.255 164.713 255.662 165.783 255.812C166.852 255.963 167.942 255.854 168.961 255.494C194.891 246.186 217.241 228.971 232.854 206.279C248.467 183.587 256.553 156.565 255.971 129.031C256.121 112.005 252.869 95.1212 246.406 79.3683C239.942 63.6154 230.397 49.311 218.33 37.294C206.263 25.2769 191.918 15.789 176.134 9.38674C160.351 2.98444 143.448 -0.203437 126.415 0.010056ZM50.2817 182.43V185.148C50.46 185.327 50.6719 185.469 50.9052 185.566C51.1385 185.663 51.3886 185.712 51.6412 185.712C51.8938 185.712 52.1439 185.663 52.3772 185.566C52.6105 185.469 52.8224 185.327 53.0007 185.148C53.0007 185.148 53.0007 183.389 53.0007 182.27C53.0007 181.151 50.9215 181.791 50.2817 182.43ZM44.6836 178.114C44.6836 178.114 44.6836 179.712 45.8032 180.192C45.9382 180.359 46.1087 180.493 46.3025 180.586C46.4962 180.678 46.7081 180.726 46.9228 180.726C47.1375 180.726 47.3495 180.678 47.5432 180.586C47.7369 180.493 47.9075 180.359 48.0424 180.192C48.0424 180.192 48.0424 178.593 46.9228 178.114C45.8032 177.634 45.0035 177.634 44.6836 178.114ZM60.6781 196.979V200.336C60.6781 201.456 63.3971 201.616 64.0369 200.336C64.6767 199.057 64.0369 198.098 64.0369 196.979C64.0369 195.86 61.9576 196.18 61.3179 196.979H60.6781ZM54.7601 189.145V192.343C54.7601 193.622 56.9994 194.101 57.7991 193.622C58.2041 193.156 58.4272 192.56 58.4272 191.943C58.4272 191.326 58.2041 190.73 57.7991 190.264C56.9994 188.985 55.7198 188.506 54.7601 189.145Z" fill="#36D399"/>
</svg>
