<svg width="32" height="32" viewBox="0 0 32 32" fill="none" xmlns="http://www.w3.org/2000/svg">
<path d="M10.7037 25.7415C10.7037 25.8814 10.5637 25.9813 10.3638 25.9813C10.1639 25.9813 10.0039 25.9813 10.0039 25.7415C10.0039 25.5017 10.1639 25.5017 10.3438 25.5017C10.5237 25.5017 10.7037 25.6016 10.7037 25.7415ZM8.70437 25.4418C8.70437 25.5816 8.70437 25.7415 8.98428 25.7815C9.05587 25.8159 9.13818 25.8204 9.21315 25.7942C9.28811 25.768 9.3496 25.7131 9.38414 25.6416C9.38414 25.5017 9.38414 25.3618 9.10424 25.3019C8.82433 25.2419 8.74436 25.3019 8.70437 25.4418ZM11.5434 25.3418C11.3635 25.3418 11.2435 25.5017 11.2635 25.6616C11.2835 25.8215 11.4434 25.8814 11.6434 25.8414C11.8433 25.8015 11.9433 25.6616 11.9233 25.5217C11.9033 25.3818 11.7433 25.3218 11.5434 25.3418ZM15.8019 0.00125699C13.6934 -0.0185795 11.6026 0.387591 9.65492 1.19539C7.70729 2.00319 5.943 3.19598 4.46792 4.70216C2.99285 6.20835 1.83739 7.99689 1.07089 9.96045C0.304392 11.924 -0.0573488 14.0221 0.00737725 16.1289C-0.048433 19.58 0.9755 22.9624 2.93616 25.8037C4.89683 28.6449 7.69631 30.8031 10.9436 31.9767C11.7633 32.1166 12.0632 31.597 12.0632 31.1774V27.1804C12.0632 27.1804 7.54477 28.1797 6.58511 25.182C6.58511 25.182 5.86535 23.1835 4.80572 22.7638C4.80572 22.7638 3.32623 21.7246 4.90569 21.7446C5.423 21.8143 5.91675 22.0043 6.3473 22.2993C6.77785 22.5943 7.1332 22.9861 7.38483 23.4433C7.59402 23.8532 7.8848 24.216 8.23931 24.5095C8.59382 24.803 9.0046 25.021 9.44643 25.1501C9.88826 25.2793 10.3518 25.3168 10.8087 25.2604C11.2655 25.204 11.7061 25.0549 12.1032 24.8222C12.1789 23.9879 12.5388 23.2048 13.1228 22.6039C9.52409 22.1843 5.88535 21.6646 5.88535 15.2895C5.84713 14.5694 5.96288 13.8493 6.22488 13.1773C6.48689 12.5054 6.88913 11.8969 7.40482 11.3925C6.91828 9.9296 6.97506 8.34046 7.56477 6.91596C8.9243 6.47629 12.0232 8.69459 12.0232 8.69459C14.6707 7.94823 17.473 7.94823 20.1204 8.69459C20.1204 8.69459 23.2194 6.47629 24.5789 6.91596C25.1813 8.33766 25.2383 9.93148 24.7388 11.3925C25.2727 11.89 25.6962 12.4938 25.9821 13.1651C26.2679 13.8364 26.4097 14.5601 26.3983 15.2895C26.3983 21.6846 22.5996 22.1843 19.0008 22.6039C19.3625 23.0095 19.6377 23.4844 19.8096 23.9998C19.9815 24.5153 20.0464 25.0603 20.0005 25.6016V31.1374C19.9992 31.2723 20.0305 31.4056 20.0917 31.5259C20.1529 31.6462 20.2422 31.75 20.3521 31.8284C20.4619 31.9069 20.5891 31.9577 20.7228 31.9766C20.8565 31.9954 20.9928 31.9818 21.1201 31.9368C24.3614 30.7733 27.1552 28.6213 29.1067 25.7848C31.0583 22.9483 32.0691 19.5707 31.9963 16.1289C32.0151 14.0007 31.6086 11.8901 30.8007 9.92104C29.9928 7.95193 28.7996 6.16388 27.2913 4.66175C25.7829 3.15961 23.9897 1.97363 22.0168 1.17334C20.0439 0.373054 17.9309 -0.0254296 15.8019 0.00125699ZM6.28521 22.8038V23.1435C6.3075 23.1659 6.33398 23.1836 6.36315 23.1957C6.39231 23.2078 6.42357 23.2141 6.45515 23.2141C6.48673 23.2141 6.51799 23.2078 6.54716 23.1957C6.57632 23.1836 6.6028 23.1659 6.62509 23.1435C6.62509 23.1435 6.62509 22.9237 6.62509 22.7838C6.62509 22.6439 6.36518 22.7238 6.28521 22.8038ZM5.58545 22.2642C5.58545 22.2642 5.58545 22.464 5.7254 22.524C5.74227 22.5449 5.76359 22.5617 5.78781 22.5732C5.81202 22.5848 5.83852 22.5908 5.86535 22.5908C5.89219 22.5908 5.91869 22.5848 5.9429 22.5732C5.96712 22.5617 5.98844 22.5449 6.00531 22.524C6.00531 22.524 6.00531 22.3241 5.86535 22.2642C5.7254 22.2042 5.62544 22.2042 5.58545 22.2642ZM7.58476 24.6224V25.0421C7.58476 25.182 7.92464 25.2019 8.00462 25.0421C8.08459 24.8822 8.00462 24.7623 8.00462 24.6224C8.00462 24.4825 7.74471 24.5225 7.66473 24.6224H7.58476ZM6.84502 23.6431V24.0428C6.84502 24.2027 7.12492 24.2627 7.22489 24.2027C7.27552 24.1445 7.3034 24.07 7.3034 23.9929C7.3034 23.9157 7.27552 23.8412 7.22489 23.783C7.12492 23.6231 6.96497 23.5632 6.84502 23.6431Z" fill="#36D399"/>
</svg>
